<?xml version="1.0" encoding="UTF-8" standalone="no"?><svg xmlns="http://www.w3.org/2000/svg" xmlns:xlink="http://www.w3.org/1999/xlink" contentScriptType="application/ecmascript" contentStyleType="text/css" height="1060px" preserveAspectRatio="none" style="width:283px;height:1060px;background:#FFFFFF;" version="1.1" viewBox="0 0 283 1060" width="283px" zoomAndPan="magnify"><defs><filter height="300%" id="fetcs3fuabrwi" width="300%" x="-1" y="-1"><feGaussianBlur result="blurOut" stdDeviation="2.0"/><feColorMatrix in="blurOut" result="blurOut2" type="matrix" values="0 0 0 0 0 0 0 0 0 0 0 0 0 0 0 0 0 0 .4 0"/><feOffset dx="4.0" dy="4.0" in="blurOut2" result="blurOut3"/><feBlend in="SourceGraphic" in2="blurOut3" mode="normal"/></filter></defs><g><!--MD5=[8fc3522a43f8c7199df5e09e5bb0188e]
entity user--><ellipse cx="189.34" cy="983.7969" fill="#FEFECE" filter="url(#fetcs3fuabrwi)" rx="8" ry="8" style="stroke:#A80036;stroke-width:1.5;"/><path d="M189.34,991.7969 L189.34,1018.7969 M176.34,999.7969 L202.34,999.7969 M189.34,1018.7969 L176.34,1033.7969 M189.34,1018.7969 L202.34,1033.7969 " fill="none" filter="url(#fetcs3fuabrwi)" style="stroke:#A80036;stroke-width:1.5;"/><text fill="#000000" font-family="sans-serif" font-size="14" lengthAdjust="spacing" textLength="31" x="173.84" y="1052.292">user</text><text fill="#000000" font-family="sans-serif" font-size="14" font-style="italic" lengthAdjust="spacing" textLength="68" x="155.34" y="970.9951">«Human»</text><ellipse cx="189.1473" cy="768.8615" fill="#FEFECE" filter="url(#fetcs3fuabrwi)" rx="72.3073" ry="16.8615" style="stroke:#A80036;stroke-width:1.5;"/><text fill="#000000" font-family="sans-serif" font-size="14" lengthAdjust="spacing" textLength="99" x="136.6473" y="772.609">Add to favorite</text><ellipse cx="189.4166" cy="836.9153" fill="#FEFECE" filter="url(#fetcs3fuabrwi)" rx="65.0766" ry="15.4153" style="stroke:#A80036;stroke-width:1.5;"/><text fill="#000000" font-family="sans-serif" font-size="14" lengthAdjust="spacing" textLength="79" x="146.9166" y="840.6629">Suggestion</text><ellipse cx="189.2244" cy="904.9769" fill="#FEFECE" filter="url(#fetcs3fuabrwi)" rx="75.3844" ry="17.4769" style="stroke:#A80036;stroke-width:1.5;"/><text fill="#000000" font-family="sans-serif" font-size="14" lengthAdjust="spacing" textLength="107" x="132.7244" y="908.7244">Edit METADATA</text><ellipse cx="189.4166" cy="700.9153" fill="#FEFECE" filter="url(#fetcs3fuabrwi)" rx="65.0766" ry="15.4153" style="stroke:#A80036;stroke-width:1.5;"/><text fill="#000000" font-family="sans-serif" font-size="14" lengthAdjust="spacing" textLength="79" x="146.9166" y="704.6629">View books</text><ellipse cx="189.453" cy="93.1226" fill="#FEFECE" filter="url(#fetcs3fuabrwi)" rx="66.113" ry="15.6226" style="stroke:#A80036;stroke-width:1.5;"/><text fill="#000000" font-family="sans-serif" font-size="14" lengthAdjust="spacing" textLength="82" x="145.453" y="96.8702">Title Sorting</text><ellipse cx="189.5181" cy="160.1356" fill="#FEFECE" filter="url(#fetcs3fuabrwi)" rx="71.1781" ry="16.6356" style="stroke:#A80036;stroke-width:1.5;"/><text fill="#000000" font-family="sans-serif" font-size="14" lengthAdjust="spacing" textLength="96" x="138.5181" y="163.8832">Category view</text><ellipse cx="189.1449" cy="228.061" fill="#FEFECE" filter="url(#fetcs3fuabrwi)" rx="70.8049" ry="16.561" style="stroke:#A80036;stroke-width:1.5;"/><text fill="#000000" font-family="sans-serif" font-size="14" lengthAdjust="spacing" textLength="95" x="138.6449" y="231.8085">Search books</text><ellipse cx="189.3026" cy="385.1925" fill="#FEFECE" filter="url(#fetcs3fuabrwi)" rx="66.4626" ry="15.6925" style="stroke:#A80036;stroke-width:1.5;"/><text fill="#000000" font-family="sans-serif" font-size="14" lengthAdjust="spacing" textLength="83" x="144.8026" y="388.9401">Read books</text><ellipse cx="189.2058" cy="298.7732" fill="#FEFECE" filter="url(#fetcs3fuabrwi)" rx="81.8658" ry="18.7732" style="stroke:#A80036;stroke-width:1.5;"/><text fill="#000000" font-family="sans-serif" font-size="14" lengthAdjust="spacing" textLength="123" x="126.7205" y="301.9463">Tracking of pages</text><ellipse cx="189.2325" cy="451.0785" fill="#FEFECE" filter="url(#fetcs3fuabrwi)" rx="63.3925" ry="15.0785" style="stroke:#A80036;stroke-width:1.5;"/><text fill="#000000" font-family="sans-serif" font-size="14" lengthAdjust="spacing" textLength="74" x="149.2325" y="454.8261">Add books</text><ellipse cx="189.4034" cy="517.9127" fill="#FEFECE" filter="url(#fetcs3fuabrwi)" rx="70.0634" ry="16.4127" style="stroke:#A80036;stroke-width:1.5;"/><text fill="#000000" font-family="sans-serif" font-size="14" lengthAdjust="spacing" textLength="93" x="139.9034" y="521.6602">Delete books</text><!--MD5=[b0ef157527fb795a549c835f33b6de98]
entity sw--><ellipse cx="189.34" cy="579" fill="#FEFECE" filter="url(#fetcs3fuabrwi)" rx="8" ry="8" style="stroke:#A80036;stroke-width:1.5;"/><path d="M189.34,587 L189.34,614 M176.34,595 L202.34,595 M189.34,614 L176.34,629 M189.34,614 L202.34,629 " fill="none" filter="url(#fetcs3fuabrwi)" style="stroke:#A80036;stroke-width:1.5;"/><text fill="#000000" font-family="sans-serif" font-size="14" lengthAdjust="spacing" textLength="60" x="159.34" y="647.4951">Software</text><ellipse cx="189.3052" cy="24.193" fill="#FEFECE" filter="url(#fetcs3fuabrwi)" rx="78.9652" ry="18.193" style="stroke:#A80036;stroke-width:1.5;"/><text fill="#000000" font-family="sans-serif" font-size="14" lengthAdjust="spacing" textLength="116" x="129.24" y="27.6886">Download books</text><!--MD5=[3e5357f9731eb3f690a3d65be206308b]
link user to UC0--><path d="M155.31,995.79 C124.64,983.46 82.3,960.23 68.34,922.5 C55.23,887.07 55.23,787.93 68.34,752.5 C77.14,728.71 101.09,715.87 125.38,708.96 " fill="none" id="user-to-UC0" style="stroke:#A80036;stroke-width:1.0;"/><polygon fill="#A80036" points="130.24,707.65,120.5096,706.1273,125.4119,708.9499,122.5894,713.8522,130.24,707.65" style="stroke:#A80036;stroke-width:1.0;"/><!--MD5=[b2cfa0738cc752f103aa40c770997175]
link user to UC4--><path d="M155.31,995.79 C124.64,983.46 82.3,960.23 68.34,922.5 C52.77,880.4 52.77,863.6 68.34,821.5 C76.65,799.04 98.35,786.17 121.13,778.8 " fill="none" id="user-to-UC4" style="stroke:#A80036;stroke-width:1.0;"/><polygon fill="#A80036" points="126,777.31,116.2251,776.1049,121.2168,778.7664,118.5553,783.758,126,777.31" style="stroke:#A80036;stroke-width:1.0;"/><!--MD5=[96bbf347eb6577790aa042b4af8d13f7]
link user to UC5--><path d="M155.1,988.85 C133.42,976.54 105.41,959.08 83.34,940 C64.98,924.13 59.92,910.26 68.34,887.5 C77,864.08 100.46,851.46 124.44,844.68 " fill="none" id="user-to-UC5" style="stroke:#A80036;stroke-width:1.0;"/><polygon fill="#A80036" points="129.56,843.32,119.8349,841.7633,124.7274,844.603,121.8877,849.4955,129.56,843.32" style="stroke:#A80036;stroke-width:1.0;"/><!--MD5=[25a3ad4d0be805c5841d244648c395ae]
link user to UC6--><path d="M189.34,957.99 C189.34,948 189.34,938.01 189.34,928.03 " fill="none" id="user-to-UC6" style="stroke:#A80036;stroke-width:1.0;"/><polygon fill="#A80036" points="189.34,922.8,185.34,931.8,189.34,927.8,193.34,931.8,189.34,922.8" style="stroke:#A80036;stroke-width:1.0;"/><!--MD5=[fd175d44a7b8805ead21b25644ac9cd5]
link sw to UC11--><path d="M159.17,602.27 C128.16,592.37 82.48,571.73 68.34,533.5 C55.7,499.32 55.7,403.68 68.34,369.5 C78.23,342.77 104.42,325.74 129.92,315.13 " fill="none" id="sw-to-UC11" style="stroke:#A80036;stroke-width:1.0;"/><polygon fill="#A80036" points="134.67,313.22,124.8281,312.8486,130.0276,315.077,127.7993,320.2764,134.67,313.22" style="stroke:#A80036;stroke-width:1.0;"/><!--MD5=[f655f826646b6fc51a9603eff1df3b03]
reverse link UC0 to UC8--><path d="M129.22,691.25 C112.98,686.35 96.33,679.01 83.34,668 C49.44,639.26 43.47,619.91 45.34,575.5 C49.57,475.34 20.57,204.16 83.34,126 C94.5,112.1 111.44,103.94 128.52,99.18 " fill="none" id="UC0-backto-UC8" style="stroke:#A80036;stroke-width:1.0;"/><polygon fill="#A80036" points="134.24,692.69,126.7026,686.3507,129.4362,691.3032,124.4837,694.0368,134.24,692.69" style="stroke:#A80036;stroke-width:1.0;"/><text fill="#000000" font-family="sans-serif" font-size="13" lengthAdjust="spacing" textLength="51" x="23.34" y="588.5669">extends</text><!--MD5=[9cfb4167cba95b0b8a0f2f70979d2939]
reverse link UC0 to UC7--><path d="M125.7,692.88 C109.93,687.99 94.41,680.24 83.34,668 C26.61,605.25 53.83,565.67 45.34,481.5 C39.71,425.69 18.77,270.66 83.34,194 C94.36,180.92 110.43,172.82 126.74,167.82 " fill="none" id="UC0-backto-UC7" style="stroke:#A80036;stroke-width:1.0;"/><polygon fill="#A80036" points="130.59,694.3,123.07,687.94,125.79,692.9,120.83,695.62,130.59,694.3" style="stroke:#A80036;stroke-width:1.0;"/><text fill="#000000" font-family="sans-serif" font-size="13" lengthAdjust="spacing" textLength="51" x="23.34" y="477.5669">extends</text><!--MD5=[7d548d9bf0170c80e1ba87d7fcf05691]
reverse link UC0 to UC1--><path d="M126.43,692.51 C110.58,687.62 94.83,679.97 83.34,668 C37.96,620.71 53.86,590.49 45.34,525.5 C38.82,475.76 13.63,343.65 83.34,262 C94.45,248.99 110.54,240.91 126.85,235.91 " fill="none" id="UC0-backto-UC1" style="stroke:#A80036;stroke-width:1.0;"/><polygon fill="#A80036" points="131.34,693.94,123.82,687.58,126.54,692.54,121.58,695.26,131.34,693.94" style="stroke:#A80036;stroke-width:1.0;"/><text fill="#000000" font-family="sans-serif" font-size="13" lengthAdjust="spacing" textLength="51" x="23.34" y="521.5669">extends</text><!--MD5=[d975f50bf120396351dee4ac001ed188]
reverse link UC0 to UC3--><path d="M125.91,692.68 C110.15,687.8 94.57,680.1 83.34,668 C27.28,607.59 24.69,566.29 45.34,486.5 C54.06,452.8 56.34,439.97 83.34,418 C97.84,406.2 116.57,398.6 134.24,393.72 " fill="none" id="UC0-backto-UC3" style="stroke:#A80036;stroke-width:1.0;"/><polygon fill="#A80036" points="130.8,694.11,123.28,687.75,126,692.71,121.04,695.43,130.8,694.11" style="stroke:#A80036;stroke-width:1.0;"/><text fill="#000000" font-family="sans-serif" font-size="13" lengthAdjust="spacing" textLength="51" x="23.34" y="499.5669">extends</text><!--MD5=[c4831aa2a353de5784ea21881b2cbe10]
reverse link UC0 to UC9--><path d="M127.03,692.24 C111.1,687.36 95.16,679.77 83.34,668 C38.43,623.25 24.04,590.22 45.34,530.5 C54.31,505.36 61.22,498.93 83.34,484 C99.95,472.79 120.56,465.24 139.18,460.23 " fill="none" id="UC0-backto-UC9" style="stroke:#A80036;stroke-width:1.0;"/><polygon fill="#A80036" points="131.96,693.67,124.44,687.31,127.16,692.27,122.2,694.99,131.96,693.67" style="stroke:#A80036;stroke-width:1.0;"/><text fill="#000000" font-family="sans-serif" font-size="13" lengthAdjust="spacing" textLength="51" x="23.34" y="543.5669">extends</text><!--MD5=[5d4f0016196fb2e6cb29a1348b578ca1]
reverse link UC0 to UC10--><path d="M127.75,691.82 C111.75,686.94 95.58,679.46 83.34,668 C43.88,631.08 11.87,594.93 45.34,552.5 C62.85,530.3 91.9,520.8 119.34,517.2 " fill="none" id="UC0-backto-UC10" style="stroke:#A80036;stroke-width:1.0;"/><polygon fill="#A80036" points="132.71,693.26,125.1726,686.9207,127.9062,691.8732,122.9537,694.6068,132.71,693.26" style="stroke:#A80036;stroke-width:1.0;"/><text fill="#000000" font-family="sans-serif" font-size="13" lengthAdjust="spacing" textLength="51" x="23.34" y="565.5669">extends</text><!--MD5=[1a38c177e67c37962856be377c4cad5a]
reverse link UC9 to UC2--><path d="M123.67,445.14 C93.93,438.69 61.8,425.44 45.34,398.5 C6,334.09 36.09,119.85 83.34,61 C93.65,48.16 108.7,39.76 124.25,34.28 " fill="none" id="UC9-backto-UC2" style="stroke:#A80036;stroke-width:1.0;"/><polygon fill="#A80036" points="128.8,446.2,120.7976,440.4587,123.9038,445.1865,119.176,448.2927,128.8,446.2" style="stroke:#A80036;stroke-width:1.0;"/><text fill="#000000" font-family="sans-serif" font-size="13" lengthAdjust="spacing" textLength="51" x="23.34" y="394.5669">extends</text><!--MD5=[b2ea2f3d4d4e6cd88a3ac633956806b5]
reverse link UC3 to UC11--><path d="M189.34,363.92 C189.34,349.98 189.34,331.84 189.34,318.29 " fill="none" id="UC3-backto-UC11" style="stroke:#A80036;stroke-width:1.0;"/><polygon fill="#A80036" points="189.34,369.23,193.34,360.23,189.34,364.23,185.34,360.23,189.34,369.23" style="stroke:#A80036;stroke-width:1.0;"/><text fill="#000000" font-family="sans-serif" font-size="13" lengthAdjust="spacing" textLength="51" x="152.34" y="348.3169">extends</text><!--MD5=[e4403a83bbdcb8dde1845221ea6b0d5f]
@startuml

left to right direction
' top to bottom direction

together {
user << Human >>
(Add to favorite) as (UC4)
(Suggestion) as (UC5)
(Edit METADATA) as (UC6)
(View books) as (UC0)
}

user -right-> UC0
user -right-> UC4
user -right-> UC5
user -right-> UC6
together {
(Title Sorting) as (UC8)
(Category view) as (UC7)
(Search books) as (UC1)
(Read books) as (UC3)
(Tracking of pages) as (UC11)
(Add books) as (UC9)
(Delete books) as (UC10)
}

:Software: as sw
sw -> UC11

(Download books) as (UC2)

UC8 -left-> UC0: extends
UC7 -left-> UC0: extends
UC1 -left-> UC0: extends
UC3 -left-> UC0: extends
UC9 -left-> UC0: extends
UC10 -left-> UC0: extends

UC2 -left-> UC9: extends

UC11 -left-> UC3: extends
@enduml

@startuml

left to right direction

together {
user << Human >>
(Add to favorite) as (UC4)
(Suggestion) as (UC5)
(Edit METADATA) as (UC6)
(View books) as (UC0)
}

user -right-> UC0
user -right-> UC4
user -right-> UC5
user -right-> UC6
together {
(Title Sorting) as (UC8)
(Category view) as (UC7)
(Search books) as (UC1)
(Read books) as (UC3)
(Tracking of pages) as (UC11)
(Add books) as (UC9)
(Delete books) as (UC10)
}

:Software: as sw
sw -> UC11

(Download books) as (UC2)

UC8 -left-> UC0: extends
UC7 -left-> UC0: extends
UC1 -left-> UC0: extends
UC3 -left-> UC0: extends
UC9 -left-> UC0: extends
UC10 -left-> UC0: extends

UC2 -left-> UC9: extends

UC11 -left-> UC3: extends
@enduml

PlantUML version 1.2021.9(Sun Jul 25 17:13:56 ICT 2021)
(GPL source distribution)
Java Runtime: OpenJDK Runtime Environment
JVM: OpenJDK 64-Bit Server VM
Default Encoding: UTF-8
Language: en
Country: US
--></g></svg>